<mxfile host="app.diagrams.net" modified="2022-12-28T20:52:41.789Z" agent="5.0 (Windows NT 10.0; Win64; x64) AppleWebKit/537.36 (KHTML, like Gecko) Chrome/108.0.0.0 Safari/537.36 Edg/108.0.1462.54" etag="2wkPsw8fSlSNdkssXb9K" version="20.7.4" type="github">
  <diagram name="Page-1" id="e7e014a7-5840-1c2e-5031-d8a46d1fe8dd">
    <mxGraphModel dx="907" dy="584" grid="1" gridSize="10" guides="1" tooltips="1" connect="1" arrows="1" fold="1" page="1" pageScale="1" pageWidth="1169" pageHeight="826" background="none" math="0" shadow="0">
      <root>
        <mxCell id="0" />
        <mxCell id="1" parent="0" />
        <mxCell id="2" value="INGENIERIA" style="swimlane;whiteSpace=wrap" parent="1" vertex="1">
          <mxGeometry x="80" y="128" width="205.5" height="570" as="geometry" />
        </mxCell>
        <mxCell id="5" value="" style="ellipse;shape=startState;fillColor=#000000;strokeColor=#ff0000;" parent="2" vertex="1">
          <mxGeometry x="80" y="40" width="30" height="30" as="geometry" />
        </mxCell>
        <mxCell id="6" value="" style="edgeStyle=elbowEdgeStyle;elbow=horizontal;verticalAlign=bottom;endArrow=open;endSize=8;strokeColor=#FF0000;endFill=1;rounded=0" parent="2" source="5" target="7" edge="1">
          <mxGeometry x="100" y="40" as="geometry">
            <mxPoint x="115" y="110" as="targetPoint" />
          </mxGeometry>
        </mxCell>
        <mxCell id="7" value="Solicitud de Partes&#xa;SCI" style="" parent="2" vertex="1">
          <mxGeometry x="40" y="102" width="110" height="50" as="geometry" />
        </mxCell>
        <mxCell id="9" value="" style="endArrow=open;strokeColor=#FF0000;endFill=1;rounded=0;edgeStyle=orthogonalEdgeStyle;entryX=0;entryY=0.5;entryDx=0;entryDy=0;" parent="2" target="21" edge="1">
          <mxGeometry x="1" y="-30" relative="1" as="geometry">
            <mxPoint x="115.5" y="162" as="sourcePoint" />
            <mxPoint x="240" y="195" as="targetPoint" />
            <Array as="points">
              <mxPoint x="116" y="195" />
            </Array>
            <mxPoint x="30" y="30" as="offset" />
          </mxGeometry>
        </mxCell>
        <mxCell id="XVA_VInoDTC9KtE7WLV4-41" value="Solo lo autorizado    (se comentó en junta)" style="shape=note;whiteSpace=wrap;size=17;labelBackgroundColor=default;" vertex="1" parent="2">
          <mxGeometry x="5.5" y="252" width="124.5" height="50" as="geometry" />
        </mxCell>
        <mxCell id="XVA_VInoDTC9KtE7WLV4-42" value="" style="endArrow=none;strokeColor=#FF0000;endFill=0;rounded=0;dashed=1;entryX=0.57;entryY=-0.04;entryDx=0;entryDy=0;entryPerimeter=0;" edge="1" parent="2" target="XVA_VInoDTC9KtE7WLV4-41">
          <mxGeometry relative="1" as="geometry">
            <mxPoint x="75.501212121212" y="160" as="sourcePoint" />
            <mxPoint x="75.5" y="232" as="targetPoint" />
          </mxGeometry>
        </mxCell>
        <mxCell id="3" value="CONTABILIDAD" style="swimlane;whiteSpace=wrap" parent="1" vertex="1">
          <mxGeometry x="285.5" y="128" width="214.5" height="570" as="geometry" />
        </mxCell>
        <mxCell id="19" value="" style="endArrow=open;strokeColor=#FF0000;endFill=1;rounded=0;exitX=0.5;exitY=1;exitDx=0;exitDy=0;" parent="3" source="21" edge="1">
          <mxGeometry x="-0.3811" y="-22" relative="1" as="geometry">
            <mxPoint x="104.5" y="242" as="sourcePoint" />
            <mxPoint x="107.5" y="292" as="targetPoint" />
            <mxPoint as="offset" />
          </mxGeometry>
        </mxCell>
        <mxCell id="21" value="&#xa;¿Cliente con adeudo?&#xa;" style="rhombus;fillColor=#ffffc0;strokeColor=#ff0000;" parent="3" vertex="1">
          <mxGeometry x="34.5" y="142" width="145.5" height="106" as="geometry" />
        </mxCell>
        <mxCell id="XVA_VInoDTC9KtE7WLV4-43" value="SI" style="text;html=1;strokeColor=none;fillColor=none;align=center;verticalAlign=middle;whiteSpace=wrap;rounded=0;labelBackgroundColor=default;" vertex="1" parent="3">
          <mxGeometry x="74.5" y="255" width="35.5" height="30" as="geometry" />
        </mxCell>
        <mxCell id="XVA_VInoDTC9KtE7WLV4-44" style="edgeStyle=none;rounded=0;orthogonalLoop=1;jettySize=auto;html=1;exitX=0;exitY=0;exitDx=0;exitDy=0;" edge="1" parent="3" source="XVA_VInoDTC9KtE7WLV4-43" target="XVA_VInoDTC9KtE7WLV4-43">
          <mxGeometry relative="1" as="geometry" />
        </mxCell>
        <mxCell id="XVA_VInoDTC9KtE7WLV4-45" value="" style="ellipse;shape=endState;fillColor=#000000;strokeColor=#ff0000" vertex="1" parent="3">
          <mxGeometry x="92.25" y="292" width="30" height="30" as="geometry" />
        </mxCell>
        <mxCell id="XVA_VInoDTC9KtE7WLV4-46" value="NO" style="text;html=1;strokeColor=none;fillColor=none;align=center;verticalAlign=middle;whiteSpace=wrap;rounded=0;labelBackgroundColor=default;" vertex="1" parent="3">
          <mxGeometry x="180" y="170" width="40" height="22" as="geometry" />
        </mxCell>
        <mxCell id="XVA_VInoDTC9KtE7WLV4-52" value="FIN" style="text;html=1;align=center;verticalAlign=middle;resizable=0;points=[];autosize=1;strokeColor=none;fillColor=none;" vertex="1" parent="3">
          <mxGeometry x="87.25" y="322" width="40" height="30" as="geometry" />
        </mxCell>
        <mxCell id="4" value="ALMACEN" style="swimlane;whiteSpace=wrap" parent="1" vertex="1">
          <mxGeometry x="500" y="128" width="230" height="570" as="geometry" />
        </mxCell>
        <mxCell id="XVA_VInoDTC9KtE7WLV4-48" value="Validar existencia" style="rhombus;fillColor=#ffffc0;strokeColor=#ff0000;" vertex="1" parent="4">
          <mxGeometry x="32.25" y="142" width="145.5" height="106" as="geometry" />
        </mxCell>
        <mxCell id="XVA_VInoDTC9KtE7WLV4-49" value="" style="endArrow=open;strokeColor=#FF0000;endFill=1;rounded=0;exitX=1;exitY=0.5;exitDx=0;exitDy=0;" edge="1" parent="4">
          <mxGeometry x="1" y="-30" relative="1" as="geometry">
            <mxPoint x="177.75" y="194.5" as="sourcePoint" />
            <mxPoint x="252.25" y="194.5" as="targetPoint" />
            <mxPoint x="30" y="30" as="offset" />
          </mxGeometry>
        </mxCell>
        <mxCell id="XVA_VInoDTC9KtE7WLV4-50" value="SI" style="text;html=1;strokeColor=none;fillColor=none;align=center;verticalAlign=middle;whiteSpace=wrap;rounded=0;labelBackgroundColor=default;" vertex="1" parent="4">
          <mxGeometry x="60" y="255" width="35.5" height="30" as="geometry" />
        </mxCell>
        <mxCell id="XVA_VInoDTC9KtE7WLV4-47" value="" style="endArrow=open;strokeColor=#FF0000;endFill=1;rounded=0;exitX=1;exitY=0.5;exitDx=0;exitDy=0;entryX=0;entryY=0.5;entryDx=0;entryDy=0;" edge="1" parent="1" source="21" target="XVA_VInoDTC9KtE7WLV4-48">
          <mxGeometry x="1" y="-30" relative="1" as="geometry">
            <mxPoint x="470" y="323" as="sourcePoint" />
            <mxPoint x="530" y="323" as="targetPoint" />
            <mxPoint x="30" y="30" as="offset" />
          </mxGeometry>
        </mxCell>
      </root>
    </mxGraphModel>
  </diagram>
</mxfile>
